# xmcd
#
# Track frame offsets: 
#        150
#        19655
#        41743
#        61563
#        79460
#        106613
#        130790
#        145813
#        166603
#        182665
#        203228
#
# Disc length: 3011 seconds
#
# Revision: 0
# Processed by: cddbd v1.5.2PL0 Copyright (c) Steve Scherf et al.
# Submitted via: ExactAudioCopy v1.0b2
#
DISCID=850bc10b
DTITLE=Dani Carroll - Dani Carroll
DYEAR=2001
DGENRE=Country
TTITLE0=Rainy Morning
TTITLE1=Wild of Colorado
TTITLE2=The Yellow Line
TTITLE3=Don't Call Me Crazy
TTITLE4=Still in Love with You
TTITLE5=A Song for You
TTITLE6=Carolina
TTITLE7=Here to Fall
TTITLE8=All I Want Is You
TTITLE9=Next Time Around
TTITLE10=One for the Road
EXTD=
EXTT0=
EXTT1=
EXTT2=
EXTT3=
EXTT4=
EXTT5=
EXTT6=
EXTT7=
EXTT8=
EXTT9=
EXTT10=
PLAYORDER=
